<svg xmlns="http://www.w3.org/2000/svg" xmlns:xlink="http://www.w3.org/1999/xlink" width="500" zoomAndPan="magnify" viewBox="0 0 375 374.999991" height="500" preserveAspectRatio="xMidYMid meet" version="1.0"><defs><g/></defs><path stroke-linecap="butt" transform="matrix(0.925828, 0, 0, 0.925828, 4.653407, 141.923398)" fill="none" stroke-linejoin="miter" d="M 52.696584 90.867135 C 45.966969 90.867135 40.57062 88.7491 36.515975 84.517248 C 32.473987 80.285397 30.457213 74.492443 30.457213 67.12995 L 30.457213 24.587817 C 30.457213 15.406851 32.284123 8.491593 35.937945 3.842041 C 39.591767 -0.81173 45.317214 -3.136506 53.118503 -3.136506 C 59.919844 -3.136506 65.392138 -1.271622 69.535387 2.449707 C 73.695512 6.175255 75.779794 11.54207 75.779794 18.55437 L 75.779794 34.448074 L 57.417862 34.448074 L 57.417862 20.811639 C 57.417862 18.170423 57.092984 16.351951 56.447447 15.356221 C 55.801911 14.339395 54.692263 13.833092 53.118503 13.833092 C 51.473018 13.833092 50.346493 14.411122 49.73471 15.562962 C 49.122927 16.702144 48.814925 18.381383 48.814925 20.600679 L 48.814925 66.893675 C 48.814925 69.340808 49.173557 71.125527 49.89082 72.243613 C 50.608083 73.344823 51.683977 73.897537 53.118503 73.897537 C 55.983336 73.897537 57.417862 71.560104 57.417862 66.893675 L 57.417862 50.236297 L 76.016069 50.236297 L 76.016069 67.65313 C 76.016069 83.129133 68.240094 90.867135 52.696584 90.867135 Z M 82.1339 89.997981 L 82.1339 -2.271571 L 100.495832 -2.271571 L 100.495832 30.69721 L 109.200029 30.69721 L 109.200029 -2.271571 L 127.561961 -2.271571 L 127.561961 89.997981 L 109.200029 89.997981 L 109.200029 48.114043 L 100.495832 48.114043 L 100.495832 89.997981 Z M 134.873824 89.997981 L 134.873824 -2.271571 L 152.708357 -2.271571 L 152.708357 89.997981 Z M 160.121481 89.997981 L 160.121481 -2.271571 L 179.137388 -2.271571 L 187.609529 41.869636 L 187.609529 -2.271571 L 205.444062 -2.271571 L 205.444062 89.997981 L 187.39857 89.997981 L 178.166973 43.810465 L 178.166973 89.997981 Z M 213.62086 89.997981 L 213.62086 -2.271571 L 241.762884 -2.271571 L 249.500885 54.016695 L 257.234668 -2.271571 L 285.587651 -2.271571 L 285.587651 89.997981 L 268.723533 89.997981 L 268.723533 23.511923 L 258.074288 89.997981 L 241.551924 89.997981 L 230.274019 23.511923 L 230.274019 89.997981 Z M 291.262467 89.997981 L 300.181843 -2.271571 L 331.44607 -2.271571 L 340.259966 89.997981 L 322.762969 89.997981 L 321.4508 75.074692 L 310.278374 75.074692 L 309.20248 89.997981 Z M 311.696023 60.362363 L 320.062685 60.362363 L 315.995382 13.415392 L 315.130447 13.415392 Z M 357.027043 89.997981 L 357.027043 59.602908 L 342.289399 -2.271571 L 360.571166 -2.271571 L 365.710144 28.967341 L 370.878657 -2.271571 L 389.13089 -2.271571 L 374.418561 59.602908 L 374.418561 89.997981 Z M 357.027043 89.997981 " stroke="#39d4a1" stroke-width="3.088883" stroke-opacity="1" stroke-miterlimit="4"/><g fill="#39d4a1" fill-opacity="1"><g transform="translate(12.917517, 132.372678)"><g><path d="M 9.078125 0 L 1.125 -74.21875 L 15.640625 -74.21875 L 19.78125 -27.390625 L 23.9375 -74.21875 L 37.765625 -74.21875 L 41.734375 -27.390625 L 45.703125 -74.21875 L 60.390625 -74.21875 L 52.28125 0 L 34.46875 0 L 30.765625 -35.765625 L 27.21875 0 Z M 9.078125 0 "/></g></g></g><g fill="#39d4a1" fill-opacity="1"><g transform="translate(74.505717, 132.342249)"><g><path d="M 1.875 0 L 1.875 -42.40625 L 10.3125 -42.40625 L 10.3125 -27.25 L 14.3125 -27.25 L 14.3125 -42.40625 L 22.765625 -42.40625 L 22.765625 0 L 14.3125 0 L 14.3125 -19.25 L 10.3125 -19.25 L 10.3125 0 Z M 1.875 0 "/></g></g></g><g fill="#39d4a1" fill-opacity="1"><g transform="translate(99.14265, 132.342249)"><g><path d="M 0.734375 0 L 4.84375 -42.40625 L 19.203125 -42.40625 L 23.25 0 L 15.203125 0 L 14.609375 -6.859375 L 9.484375 -6.859375 L 8.984375 0 Z M 10.125 -13.625 L 13.96875 -13.625 L 12.09375 -35.203125 L 11.703125 -35.203125 Z M 10.125 -13.625 "/></g></g></g><g fill="#39d4a1" fill-opacity="1"><g transform="translate(123.088375, 132.342249)"><g><path d="M 5.53125 0 L 5.53125 -34.265625 L 0.5 -34.265625 L 0.5 -42.40625 L 19.0625 -42.40625 L 19.0625 -34.265625 L 14.015625 -34.265625 L 14.015625 0 Z M 5.53125 0 "/></g></g></g><g fill="#39d4a1" fill-opacity="1"><g transform="translate(155.781888, 132.064077)"><g><path d="M 3.28125 -74.21875 L 23.765625 -74.21875 C 29.066406 -74.21875 33.039062 -72.75 35.6875 -69.8125 C 38.332031 -66.875 39.6875 -62.523438 39.75 -56.765625 L 39.921875 -22.03125 C 39.972656 -14.71875 38.703125 -9.21875 36.109375 -5.53125 C 33.523438 -1.84375 29.238281 0 23.25 0 L 3.28125 0 Z M 20.828125 -13.140625 C 23.535156 -13.140625 24.890625 -14.460938 24.890625 -17.109375 L 24.890625 -55.390625 C 24.890625 -57.054688 24.757812 -58.304688 24.5 -59.140625 C 24.238281 -59.972656 23.757812 -60.535156 23.0625 -60.828125 C 22.375 -61.117188 21.3125 -61.265625 19.875 -61.265625 L 18.234375 -61.265625 L 18.234375 -13.140625 Z M 20.828125 -13.140625 "/></g></g></g><g fill="#39d4a1" fill-opacity="1"><g transform="translate(199.45786, 132.342249)"><g><path d="M 12 0.390625 C 8.570312 0.390625 5.96875 -0.648438 4.1875 -2.734375 C 2.414062 -4.828125 1.53125 -7.765625 1.53125 -11.546875 L 1.53125 -31.75 C 1.53125 -35.40625 2.414062 -38.160156 4.1875 -40.015625 C 5.96875 -41.878906 8.570312 -42.8125 12 -42.8125 C 15.425781 -42.8125 18.023438 -41.878906 19.796875 -40.015625 C 21.578125 -38.160156 22.46875 -35.40625 22.46875 -31.75 L 22.46875 -11.546875 C 22.46875 -7.734375 21.578125 -4.789062 19.796875 -2.71875 C 18.023438 -0.644531 15.425781 0.390625 12 0.390625 Z M 12 -7.40625 C 12.757812 -7.40625 13.269531 -7.734375 13.53125 -8.390625 C 13.789062 -9.046875 13.921875 -9.96875 13.921875 -11.15625 L 13.921875 -31.890625 C 13.921875 -32.816406 13.796875 -33.566406 13.546875 -34.140625 C 13.304688 -34.710938 12.804688 -35 12.046875 -35 C 10.628906 -35 9.921875 -33.929688 9.921875 -31.796875 L 9.921875 -11.109375 C 9.921875 -9.890625 10.066406 -8.96875 10.359375 -8.34375 C 10.660156 -7.71875 11.207031 -7.40625 12 -7.40625 Z M 12 -7.40625 "/></g></g></g><g fill="#39d4a1" fill-opacity="1"><g transform="translate(223.452945, 132.342249)"><g><path d="M 1.875 0 L 1.875 -42.40625 L 18.859375 -42.40625 L 18.859375 -34.21875 L 10.515625 -34.21875 L 10.515625 -25.96875 L 18.515625 -25.96875 L 18.515625 -17.96875 L 10.515625 -17.96875 L 10.515625 -8.25 L 19.40625 -8.25 L 19.40625 0 Z M 1.875 0 "/></g></g></g><g fill="#39d4a1" fill-opacity="1"><g transform="translate(243.794458, 132.342249)"><g><path d="M 11.953125 0.390625 C 8.097656 0.390625 5.3125 -0.5625 3.59375 -2.46875 C 1.882812 -4.375 1.03125 -7.453125 1.03125 -11.703125 L 1.03125 -15.84375 L 9.375 -15.84375 L 9.375 -10.5625 C 9.375 -8.457031 10.050781 -7.40625 11.40625 -7.40625 C 12.164062 -7.40625 12.691406 -7.625 12.984375 -8.0625 C 13.285156 -8.507812 13.4375 -9.257812 13.4375 -10.3125 C 13.4375 -11.695312 13.269531 -12.84375 12.9375 -13.75 C 12.601562 -14.65625 12.179688 -15.410156 11.671875 -16.015625 C 11.160156 -16.628906 10.25 -17.578125 8.9375 -18.859375 L 5.28125 -22.515625 C 2.445312 -25.273438 1.03125 -28.335938 1.03125 -31.703125 C 1.03125 -35.316406 1.863281 -38.070312 3.53125 -39.96875 C 5.195312 -41.863281 7.625 -42.8125 10.8125 -42.8125 C 14.632812 -42.8125 17.382812 -41.796875 19.0625 -39.765625 C 20.738281 -37.742188 21.578125 -34.578125 21.578125 -30.265625 L 12.9375 -30.265625 L 12.890625 -33.1875 C 12.890625 -33.738281 12.734375 -34.175781 12.421875 -34.5 C 12.109375 -34.832031 11.671875 -35 11.109375 -35 C 10.453125 -35 9.957031 -34.816406 9.625 -34.453125 C 9.300781 -34.097656 9.140625 -33.609375 9.140625 -32.984375 C 9.140625 -31.597656 9.925781 -30.164062 11.5 -28.6875 L 16.4375 -23.953125 C 17.59375 -22.828125 18.546875 -21.757812 19.296875 -20.75 C 20.054688 -19.75 20.664062 -18.566406 21.125 -17.203125 C 21.59375 -15.835938 21.828125 -14.21875 21.828125 -12.34375 C 21.828125 -8.164062 21.0625 -5 19.53125 -2.84375 C 18 -0.6875 15.472656 0.390625 11.953125 0.390625 Z M 11.953125 0.390625 "/></g></g></g><g fill="#39d4a1" fill-opacity="1"><g transform="translate(128.294551, 309.474522)"><g><path d="M 3.28125 -74.21875 L 23.765625 -74.21875 C 29.066406 -74.21875 33.039062 -72.75 35.6875 -69.8125 C 38.332031 -66.875 39.6875 -62.523438 39.75 -56.765625 L 39.921875 -22.03125 C 39.972656 -14.71875 38.703125 -9.21875 36.109375 -5.53125 C 33.523438 -1.84375 29.238281 0 23.25 0 L 3.28125 0 Z M 20.828125 -13.140625 C 23.535156 -13.140625 24.890625 -14.460938 24.890625 -17.109375 L 24.890625 -55.390625 C 24.890625 -57.054688 24.757812 -58.304688 24.5 -59.140625 C 24.238281 -59.972656 23.757812 -60.535156 23.0625 -60.828125 C 22.375 -61.117188 21.3125 -61.265625 19.875 -61.265625 L 18.234375 -61.265625 L 18.234375 -13.140625 Z M 20.828125 -13.140625 "/></g></g></g><g fill="#39d4a1" fill-opacity="1"><g transform="translate(171.296379, 309.453955)"><g><path d="M 12 0.390625 C 8.570312 0.390625 5.96875 -0.648438 4.1875 -2.734375 C 2.414062 -4.828125 1.53125 -7.765625 1.53125 -11.546875 L 1.53125 -31.75 C 1.53125 -35.40625 2.414062 -38.160156 4.1875 -40.015625 C 5.96875 -41.878906 8.570312 -42.8125 12 -42.8125 C 15.425781 -42.8125 18.023438 -41.878906 19.796875 -40.015625 C 21.578125 -38.160156 22.46875 -35.40625 22.46875 -31.75 L 22.46875 -11.546875 C 22.46875 -7.734375 21.578125 -4.789062 19.796875 -2.71875 C 18.023438 -0.644531 15.425781 0.390625 12 0.390625 Z M 12 -7.40625 C 12.757812 -7.40625 13.269531 -7.734375 13.53125 -8.390625 C 13.789062 -9.046875 13.921875 -9.96875 13.921875 -11.15625 L 13.921875 -31.890625 C 13.921875 -32.816406 13.796875 -33.566406 13.546875 -34.140625 C 13.304688 -34.710938 12.804688 -35 12.046875 -35 C 10.628906 -35 9.921875 -33.929688 9.921875 -31.796875 L 9.921875 -11.109375 C 9.921875 -9.890625 10.066406 -8.96875 10.359375 -8.34375 C 10.660156 -7.71875 11.207031 -7.40625 12 -7.40625 Z M 12 -7.40625 "/></g></g></g><g fill="#39d4a1" fill-opacity="1"><g transform="translate(213.143827, 310.379794)"><g><path d="M 5.359375 -36.71875 C 10.546875 -36.71875 14.503906 -37.109375 17.234375 -37.890625 C 19.972656 -38.671875 22.003906 -40.328125 23.328125 -42.859375 C 24.648438 -45.390625 25.3125 -49.304688 25.3125 -54.609375 C 25.3125 -56.742188 25.050781 -58.414062 24.53125 -59.625 C 24.019531 -60.832031 22.984375 -61.4375 21.421875 -61.4375 C 19.816406 -61.4375 18.753906 -60.742188 18.234375 -59.359375 C 17.710938 -57.972656 17.453125 -56.070312 17.453125 -53.65625 L 17.453125 -47.4375 L 1.984375 -47.4375 L 1.984375 -58.15625 C 1.984375 -63.6875 3.738281 -67.863281 7.25 -70.6875 C 10.769531 -73.507812 15.492188 -74.921875 21.421875 -74.921875 C 28.628906 -74.921875 33.742188 -73.003906 36.765625 -69.171875 C 39.785156 -65.335938 41.296875 -59.53125 41.296875 -51.75 C 41.296875 -44.15625 39.4375 -38.023438 35.71875 -33.359375 C 32.007812 -28.691406 26.582031 -26.359375 19.4375 -26.359375 L 19.4375 -19.1875 L 5.359375 -19.1875 Z M 4.921875 0 L 4.921875 -12.609375 L 19.953125 -12.609375 L 19.953125 0 Z M 4.921875 0 "/></g></g></g></svg>